<svg width="27" height="24" viewBox="0 0 27 24" fill="none" xmlns="http://www.w3.org/2000/svg">
<path d="M23.0554 17H21.7518L20.9165 13.877V10C20.9144 8.31815 20.2648 6.69324 19.0865 5.42253C17.9082 4.15181 16.2801 3.32026 14.4999 3.08V2H12.361V3.08C10.5808 3.32026 8.95261 4.15181 7.77432 5.42253C6.59604 6.69324 5.94642 8.31815 5.94431 10V13.877L5.10907 17H3.80542V19H9.3045C9.53793 19.8576 10.0703 20.618 10.8175 21.1611C11.5646 21.7042 12.484 21.9991 13.4304 21.9991C14.3768 21.9991 15.2962 21.7042 16.0434 21.1611C16.7906 20.618 17.3229 19.8576 17.5563 19H23.0554V17ZM8.05111 14.243L8.0832 10C8.0832 8.67392 8.64656 7.40215 9.64936 6.46447C10.6522 5.52678 12.0122 5 13.4304 5C14.8486 5 16.2087 5.52678 17.2115 6.46447C18.2143 7.40215 18.7776 8.67392 18.7776 10V14L19.5562 17H7.31427L8.05111 14.243ZM13.4304 20C13.0566 19.9989 12.6897 19.906 12.3665 19.7305C12.0433 19.555 11.7751 19.303 11.5888 19H15.272C15.0858 19.303 14.8176 19.555 14.4943 19.7305C14.1711 19.906 13.8042 19.9989 13.4304 20V20Z" fill="#9A9AB0"/>
</svg>
